<svg width="20" height="18" viewBox="0 0 20 18" fill="none" xmlns="http://www.w3.org/2000/svg">
<path d="M16.9811 0H3.01614C1.35225 0 0 1.31475 0 2.93249V11.4378C0 13.0555 1.35225 14.3703 3.01614 14.3703H4.78019V16.6941C4.78019 17.0268 4.98331 17.3325 5.29772 17.4678C5.4118 17.5165 5.53144 17.5408 5.65108 17.5408C5.86255 17.5408 6.07123 17.4651 6.23539 17.3217L9.58542 14.3703H16.9811C18.645 14.3703 19.9972 13.0555 19.9972 11.4378V2.93249C19.9972 1.31475 18.645 0 16.9811 0ZM13.3695 7.37721C11.3383 7.92367 10.9794 8.26994 10.4174 10.2475C10.3645 10.4314 10.1948 10.5586 9.99722 10.5586C9.79967 10.5586 9.62994 10.4314 9.57707 10.2475C9.01502 8.27265 8.65887 7.92367 6.62493 7.37721C6.43573 7.32581 6.30495 7.16079 6.30495 6.96872C6.30495 6.77665 6.43573 6.61163 6.62215 6.56023C8.65609 6.01377 9.01502 5.66479 9.57429 3.68996C9.62716 3.506 9.79688 3.37885 9.99443 3.37885C10.192 3.37885 10.3617 3.506 10.4146 3.68996C10.9766 5.66479 11.3328 6.01377 13.3667 6.56023C13.5559 6.61163 13.6839 6.77665 13.6839 6.96872C13.6839 7.16079 13.5531 7.32581 13.3639 7.37721H13.3695Z" fill="#5EE6FD"/>
</svg>
