<svg width="24" height="18" viewBox="0 0 24 18" fill="none" xmlns="http://www.w3.org/2000/svg">
<g clip-path="url(#clip0_8155_339)">
<path d="M18.5464 4.43848H5.4618C4.87452 4.43848 4.39844 4.91675 4.39844 5.50673V12.4931C4.39844 13.0831 4.87452 13.5613 5.4618 13.5613H18.5464C19.1337 13.5613 19.6098 13.0831 19.6098 12.4931V5.50673C19.6098 4.91675 19.1337 4.43848 18.5464 4.43848Z" fill="#5EE6FD"/>
<path d="M1.59504 7.20534H0V1.86944C0 0.838576 0.834736 0 1.86088 0H7.17235V1.60237H1.86088C1.71201 1.60237 1.59504 1.71988 1.59504 1.86944V7.20534Z" fill="#5EE6FD"/>
<path d="M22.1396 17.9998H16.8281V16.3974H22.1396C22.2885 16.3974 22.4054 16.2799 22.4054 16.1303V10.7944H24.0005V16.1303C24.0005 17.1612 23.1657 17.9998 22.1396 17.9998Z" fill="#5EE6FD"/>
<path d="M7.17235 18H1.86088C0.834736 18 0 17.1614 0 16.1306V10.7947H1.59504V16.1306C1.59504 16.2801 1.71201 16.3976 1.86088 16.3976H7.17235V18Z" fill="#5EE6FD"/>
<path d="M24.0005 7.20534H22.4054V1.86944C22.4054 1.71988 22.2885 1.60237 22.1396 1.60237H16.8281V0H22.1396C23.1657 0 24.0005 0.838576 24.0005 1.86944V7.20534Z" fill="#5EE6FD"/>
</g>
<defs>
<clipPath id="clip0_8155_339">
<rect width="24" height="18" fill="white"/>
</clipPath>
</defs>
</svg>
