<svg width="24" height="18" viewBox="0 0 24 18" fill="none" xmlns="http://www.w3.org/2000/svg">
<g clip-path="url(#clip0_9214_119)">
<path d="M20.9996 0H3.00006C2.56608 0 2.14987 0.172397 1.84301 0.479266C1.53614 0.786135 1.36374 1.20234 1.36374 1.63632V16.3632C1.36374 16.7972 1.53614 17.2134 1.84301 17.5202C2.14987 17.8271 2.56608 17.9995 3.00006 17.9995H20.9996C21.4335 17.9995 21.8497 17.8271 22.1566 17.5202C22.4635 17.2134 22.6359 16.7972 22.6359 16.3632V1.63632C22.6359 1.20234 22.4635 0.786135 22.1566 0.479266C21.8497 0.172397 21.4335 0 20.9996 0ZM7.90901 15.545H4.63637C4.41939 15.545 4.21128 15.4588 4.05785 15.3054C3.90441 15.152 3.81822 14.9438 3.81822 14.7269V11.4542C3.81822 11.2372 3.90441 11.0291 4.05785 10.8757C4.21128 10.7223 4.41939 10.6361 4.63637 10.6361C4.85336 10.6361 5.06147 10.7223 5.2149 10.8757C5.36833 11.0291 5.45453 11.2372 5.45453 11.4542V13.9087H7.90901C8.126 13.9087 8.3341 13.9949 8.48754 14.1483C8.64097 14.3018 8.72717 14.5099 8.72717 14.7269C8.72717 14.9438 8.64097 15.152 8.48754 15.3054C8.3341 15.4588 8.126 15.545 7.90901 15.545ZM20.1814 6.54527C20.1814 6.76226 20.0952 6.97036 19.9418 7.1238C19.7883 7.27723 19.5802 7.36343 19.3632 7.36343C19.1462 7.36343 18.9381 7.27723 18.7847 7.1238C18.6313 6.97036 18.5451 6.76226 18.5451 6.54527V4.09079H16.0906C15.8736 4.09079 15.6655 4.0046 15.5121 3.85116C15.3586 3.69773 15.2724 3.48962 15.2724 3.27264C15.2724 3.05565 15.3586 2.84754 15.5121 2.69411C15.6655 2.54068 15.8736 2.45448 16.0906 2.45448H19.3632C19.5802 2.45448 19.7883 2.54068 19.9418 2.69411C20.0952 2.84754 20.1814 3.05565 20.1814 3.27264V6.54527Z" fill="#5EE6FD"/>
</g>
<defs>
<clipPath id="clip0_9214_119">
<rect width="23.9997" height="17.9998" fill="white"/>
</clipPath>
</defs>
</svg>

