<svg width="25" height="25" viewBox="0 0 25 25" fill="none" xmlns="http://www.w3.org/2000/svg">
<path d="M20.3125 3.90625H4.6875C4.2731 3.90625 3.87567 4.07087 3.58265 4.3639C3.28962 4.65692 3.125 5.05435 3.125 5.46875V10.9375C3.125 16.0859 5.61719 19.2061 7.70801 20.917C9.95996 22.7588 12.2002 23.3838 12.2979 23.4102C12.4321 23.4467 12.5737 23.4467 12.708 23.4102C12.8057 23.3838 15.043 22.7588 17.2979 20.917C19.3828 19.2061 21.875 16.0859 21.875 10.9375V5.46875C21.875 5.05435 21.7104 4.65692 21.4174 4.3639C21.1243 4.07087 20.7269 3.90625 20.3125 3.90625ZM16.9609 10.709L11.4922 16.1777C11.4196 16.2504 11.3335 16.308 11.2386 16.3473C11.1438 16.3866 11.0421 16.4069 10.9395 16.4069C10.8368 16.4069 10.7351 16.3866 10.6403 16.3473C10.5454 16.308 10.4593 16.2504 10.3867 16.1777L8.04297 13.834C7.89637 13.6874 7.81402 13.4886 7.81402 13.2812C7.81402 13.0739 7.89637 12.8751 8.04297 12.7285C8.18956 12.5819 8.38839 12.4996 8.5957 12.4996C8.80302 12.4996 9.00184 12.5819 9.14844 12.7285L10.9375 14.5205L15.8535 9.60352C15.9261 9.53093 16.0123 9.47335 16.1071 9.43407C16.202 9.39478 16.3036 9.37457 16.4062 9.37457C16.5089 9.37457 16.6105 9.39478 16.7054 9.43407C16.8002 9.47335 16.8864 9.53093 16.959 9.60352C17.0316 9.6761 17.0891 9.76227 17.1284 9.85711C17.1677 9.95195 17.1879 10.0536 17.1879 10.1562C17.1879 10.2589 17.1677 10.3605 17.1284 10.4554C17.0891 10.5502 17.0316 10.6364 16.959 10.709H16.9609Z" fill="#0A1C1E"/>
</svg>
