<svg width="19" height="26" viewBox="0 0 19 26" fill="none" xmlns="http://www.w3.org/2000/svg">
<path d="M16.4701 16.9158C16.4299 16.7572 16.4299 16.5937 16.4701 16.4352L18.1094 9.98461C18.2703 9.36036 17.7875 8.75098 17.1339 8.75098H1.60671C0.953036 8.75098 0.470326 9.35541 0.63123 9.98461L2.27043 16.4352C2.31066 16.5937 2.31066 16.7572 2.27043 16.9158L0.63123 23.3713C0.470326 23.9956 0.953036 24.605 1.60671 24.605H17.1339C17.7875 24.605 18.2703 24.0005 18.1094 23.3713L16.4701 16.9207V16.9158ZM12.8901 17.4211H10.1245V20.146H8.61606V17.4211H5.85053V15.9348H8.61606V13.2099H10.1245V15.9348H12.8901V17.4211Z" fill="#0A1C1E"/>
<path d="M17.5372 4.46037C17.8691 3.39518 17.2807 2.26063 16.2047 1.90392C15.189 1.56702 14.0778 2.04759 13.6403 3.00874L11.8151 6.99701H16.7478L17.5422 4.46037H17.5372Z" fill="#0A1C1E"/>
</svg>
