<svg width="20" height="20" viewBox="0 0 20 20" fill="none" xmlns="http://www.w3.org/2000/svg">
<g clip-path="url(#clip0_9221_180)">
<path d="M19.7958 8.35027V18.2482C19.7958 18.6857 19.622 19.1053 19.3127 19.4147C19.0033 19.724 18.5837 19.8978 18.1462 19.8978H1.64965C1.21214 19.8978 0.792542 19.724 0.483172 19.4147C0.173802 19.1053 0 18.6857 0 18.2482V8.35027C0 7.91275 0.173802 7.49316 0.483172 7.18379C0.792542 6.87442 1.21214 6.70061 1.64965 6.70061H18.1462C18.5837 6.70061 19.0033 6.87442 19.3127 7.18379C19.622 7.49316 19.7958 7.91275 19.7958 8.35027ZM2.47448 5.05096H17.3213C17.5401 5.05096 17.7499 4.96406 17.9046 4.80937C18.0593 4.65469 18.1462 4.44489 18.1462 4.22614C18.1462 4.00738 18.0593 3.79758 17.9046 3.6429C17.7499 3.48821 17.5401 3.40131 17.3213 3.40131H2.47448C2.25572 3.40131 2.04592 3.48821 1.89124 3.6429C1.73655 3.79758 1.64965 4.00738 1.64965 4.22614C1.64965 4.44489 1.73655 4.65469 1.89124 4.80937C2.04592 4.96406 2.25572 5.05096 2.47448 5.05096ZM4.12413 1.75166H15.6717C15.8905 1.75166 16.1003 1.66476 16.2549 1.51007C16.4096 1.35539 16.4965 1.14559 16.4965 0.926831C16.4965 0.708074 16.4096 0.498276 16.2549 0.343591C16.1003 0.188906 15.8905 0.102005 15.6717 0.102005H4.12413C3.90537 0.102005 3.69557 0.188906 3.54089 0.343591C3.38621 0.498276 3.2993 0.708074 3.2993 0.926831C3.2993 1.14559 3.38621 1.35539 3.54089 1.51007C3.69557 1.66476 3.90537 1.75166 4.12413 1.75166Z" fill="#5EE6FD"/>
</g>
<defs>
<clipPath id="clip0_9221_180">
<rect width="19.7958" height="19.9998" fill="white"/>
</clipPath>
</defs>
</svg>

