<svg width="20" height="20" viewBox="0 0 20 20" fill="none" xmlns="http://www.w3.org/2000/svg">
<g clip-path="url(#clip0_8155_356)">
<path d="M4.99452 6.66667C4.99452 5.82899 5.68296 5.14757 6.52927 5.14757H13.4707V0.868055C13.4707 0.390625 13.0761 0 12.5937 0H0.877001C0.39465 0 0 0.390625 0 0.868055V12.4653C0 12.9427 0.39465 13.3333 0.877001 13.3333H4.99452V6.66667Z" fill="#5EE6FD"/>
<path d="M19.125 6.6665H15.0075V13.3332C15.0075 14.1708 14.319 14.8523 13.4727 14.8523H6.53125V19.1318C6.53125 19.6092 6.9259 19.9998 7.40825 19.9998H19.125C19.6073 19.9998 20.002 19.6092 20.002 19.1318V7.53456C20.002 7.05713 19.6073 6.6665 19.125 6.6665Z" fill="#5EE6FD"/>
<path d="M12.815 6.6665H7.40825C6.9259 6.6665 6.53125 7.05713 6.53125 7.53456V13.3332H7.189H12.5957C13.0781 13.3332 13.4727 12.9425 13.4727 12.4651V6.6665H12.815Z" fill="#5EE6FD"/>
</g>
<defs>
<clipPath id="clip0_8155_356">
<rect width="20" height="20" fill="white"/>
</clipPath>
</defs>
</svg>
