<svg width="22" height="16" viewBox="0 0 22 16" fill="none" xmlns="http://www.w3.org/2000/svg">
<path d="M4.99676 8.89267C4.99918 8.94093 4.99175 8.98918 4.97493 9.03448C4.95812 9.07978 4.93226 9.12118 4.89893 9.15617C4.86561 9.19116 4.82551 9.21901 4.78109 9.23802C4.73666 9.25702 4.68884 9.26679 4.64052 9.26673H0.711112C0.550298 9.26697 0.394131 9.21281 0.268006 9.11304C0.141881 9.01327 0.0532166 8.87377 0.0164306 8.71722C-0.00647526 8.61007 -0.00541931 8.49918 0.0195228 8.39248C0.044465 8.28578 0.092677 8.18592 0.160711 8.10002C0.789316 7.26639 1.62336 6.61001 2.58141 6.19499C2.16079 5.81149 1.83819 5.33279 1.64063 4.79898C1.44306 4.26517 1.37628 3.69179 1.44588 3.12686C1.51548 2.56193 1.71944 2.02191 2.04066 1.55201C2.36188 1.08211 2.79103 0.696029 3.29215 0.426091C3.79327 0.156153 4.35177 0.0102211 4.92089 0.000517767C5.49001 -0.00918554 6.05316 0.117622 6.56319 0.37032C7.07322 0.623018 7.51528 0.994249 7.85233 1.45292C8.18939 1.91159 8.41163 2.44436 8.50045 3.00658C8.51192 3.08219 8.49838 3.15947 8.46188 3.22667C8.42539 3.29387 8.36794 3.34731 8.29828 3.37886C7.31004 3.83573 6.47311 4.56573 5.88623 5.48275C5.29935 6.39976 4.98701 7.46551 4.98607 8.55424C4.98607 8.66824 4.98608 8.78045 4.99676 8.89267ZM21.206 8.09913C20.5788 7.26646 19.7467 6.61044 18.7906 6.19499C19.2113 5.81149 19.5339 5.33279 19.7314 4.79898C19.929 4.26517 19.9958 3.69179 19.9262 3.12686C19.8566 2.56193 19.6526 2.02191 19.3314 1.55201C19.0102 1.08211 18.581 0.696029 18.0799 0.426091C17.5788 0.156153 17.0203 0.0102211 16.4512 0.000517767C15.882 -0.00918554 15.3189 0.117622 14.8089 0.37032C14.2988 0.623018 13.8568 0.994249 13.5197 1.45292C13.1827 1.91159 12.9604 2.44436 12.8716 3.00658C12.8601 3.08219 12.8737 3.15947 12.9102 3.22667C12.9467 3.29387 13.0041 3.34731 13.0738 3.37886C14.062 3.83573 14.8989 4.56573 15.4858 5.48275C16.0727 6.39976 16.385 7.46551 16.386 8.55424C16.386 8.66824 16.386 8.78045 16.3753 8.89267C16.3729 8.94093 16.3803 8.98918 16.3971 9.03448C16.4139 9.07978 16.4398 9.12118 16.4731 9.15617C16.5064 9.19116 16.5465 9.21901 16.591 9.23802C16.6354 9.25702 16.6832 9.26679 16.7315 9.26673H20.6609C20.8218 9.26697 20.9779 9.21281 21.104 9.11304C21.2302 9.01327 21.3188 8.87377 21.3556 8.71722C21.3787 8.60987 21.3776 8.49875 21.3525 8.39186C21.3274 8.28498 21.2789 8.185 21.2104 8.09913H21.206ZM13.2795 11.9448C13.9889 11.4015 14.5103 10.6496 14.7703 9.79465C15.0302 8.93975 15.0158 8.02486 14.729 7.17858C14.4421 6.3323 13.8973 5.59718 13.1711 5.07653C12.4449 4.55587 11.5738 4.27587 10.6802 4.27587C9.78667 4.27587 8.91557 4.55587 8.18936 5.07653C7.46314 5.59718 6.91834 6.3323 6.6315 7.17858C6.34467 8.02486 6.33023 8.93975 6.59022 9.79465C6.85021 10.6496 7.37155 11.4015 8.08097 11.9448C6.82212 12.4903 5.77095 13.4244 5.08137 14.6104C5.01883 14.7188 4.98591 14.8416 4.98592 14.9667C4.98592 15.0918 5.01886 15.2147 5.08141 15.323C5.14396 15.4313 5.23393 15.5213 5.34227 15.5838C5.4506 15.6463 5.57349 15.6792 5.69857 15.6792H15.6735C15.7986 15.6792 15.9214 15.6463 16.0298 15.5838C16.1381 15.5213 16.2281 15.4313 16.2906 15.323C16.3532 15.2147 16.3861 15.0918 16.3861 14.9667C16.3861 14.8416 16.3532 14.7188 16.2907 14.6104C15.5996 13.4236 14.5465 12.4894 13.2857 11.9448H13.2795Z" fill="#0A1C1E"/>
</svg>

