<svg width="23" height="23" viewBox="0 0 23 23" fill="none" xmlns="http://www.w3.org/2000/svg">
<g clip-path="url(#clip0_8303_118)">
<path d="M17.7613 17.2049C18.9823 17.2049 19.9813 16.2059 19.9813 14.9849C19.9813 13.7639 18.9823 12.7649 17.7613 12.7649C16.5403 12.7649 15.5413 13.7639 15.5413 14.9849C15.5413 16.2059 16.5403 17.2049 17.7613 17.2049Z" fill="#0A1C1E"/>
<path d="M4.43753 17.2049C5.65853 17.2049 6.65753 16.2059 6.65753 14.9849C6.65753 13.7639 5.65853 12.7649 4.43753 12.7649C3.21653 12.7649 2.21753 13.7639 2.21753 14.9849C2.21753 16.2059 3.21653 17.2049 4.43753 17.2049Z" fill="#0A1C1E"/>
<path d="M14.1563 15.0627L11.6532 13.5586V11.1H10.5432V13.5586L8.04016 15.0627L8.60626 16.0173L11.0982 14.5243L13.5902 16.0173L14.1563 15.0627Z" fill="#0A1C1E"/>
<path d="M11.1026 4.44C12.3236 4.44 13.3226 3.441 13.3226 2.22C13.3226 0.999 12.3236 0 11.1026 0C9.88157 0 8.88257 0.999 8.88257 2.22C8.88257 3.441 9.88157 4.44 11.1026 4.44Z" fill="#0A1C1E"/>
<path d="M7.76881 9.43451H14.4288C15.0393 9.43451 15.5388 8.93501 15.5388 8.32451V6.10451C15.5388 5.49401 15.0393 4.99451 14.4288 4.99451H7.76881C7.15831 4.99451 6.65881 5.49401 6.65881 6.10451V8.32451C6.65881 8.93501 7.15831 9.43451 7.76881 9.43451Z" fill="#0A1C1E"/>
<path d="M7.77 17.76H1.11C0.4995 17.76 0 18.2595 0 18.87V21.09C0 21.7005 0.4995 22.2 1.11 22.2H7.77C8.3805 22.2 8.88 21.7005 8.88 21.09V18.87C8.88 18.2595 8.3805 17.76 7.77 17.76Z" fill="#0A1C1E"/>
<path d="M21.0875 17.76H14.4275C13.817 17.76 13.3175 18.2595 13.3175 18.87V21.09C13.3175 21.7005 13.817 22.2 14.4275 22.2H21.0875C21.698 22.2 22.1975 21.7005 22.1975 21.09V18.87C22.1975 18.2595 21.698 17.76 21.0875 17.76Z" fill="#0A1C1E"/>
</g>
<defs>
<clipPath id="clip0_8303_118">
<rect width="22.2" height="22.2" fill="white"/>
</clipPath>
</defs>
</svg>
