<svg width="20" height="20" viewBox="0 0 20 20" fill="none" xmlns="http://www.w3.org/2000/svg">
<g clip-path="url(#clip0_8155_331)">
<path d="M19.5208 4.28861L10.3292 0.0724658C10.1208 -0.0257829 9.87917 -0.0257829 9.66667 0.0724658L0.479167 4.28861C0.1875 4.42103 0 4.72005 0 5.0447C0 5.37362 0.1875 5.66837 0.479167 5.80079L9.67083 10.0169C9.87917 10.1152 10.1208 10.1152 10.3333 10.0169L19.525 5.80079C19.8167 5.66837 20.0042 5.36935 20.0042 5.0447C20.0042 4.71578 19.8167 4.42103 19.525 4.28861H19.5208Z" fill="#5EE6FD"/>
<path d="M18.8583 8.50064L10.3292 12.4135C10.1208 12.5118 9.87917 12.5118 9.66667 12.4135L1.14167 8.50064C0.608333 8.25289 0 8.6587 0 9.25673V9.79496C0 10.1239 0.1875 10.4186 0.479167 10.5511L9.67083 14.7672C9.87917 14.8654 10.1208 14.8654 10.3333 14.7672L19.525 10.5511C19.8167 10.4186 20.0042 10.1196 20.0042 9.79496V9.25673C20.0042 8.65443 19.4 8.25289 18.8625 8.50064H18.8583Z" fill="#5EE6FD"/>
<path d="M18.8583 13.6566L10.3292 17.5694C10.1208 17.6677 9.87917 17.6677 9.66667 17.5694L1.14167 13.6566C0.608333 13.4088 0 13.8146 0 14.4126V14.9509C0 15.2798 0.1875 15.5745 0.479167 15.707L9.67083 19.9231C9.87917 20.0214 10.1208 20.0214 10.3333 19.9231L19.525 15.707C19.8167 15.5745 20.0042 15.2755 20.0042 14.9509V14.4126C20.0042 13.8103 19.4 13.4088 18.8625 13.6566H18.8583Z" fill="#5EE6FD"/>
</g>
<defs>
<clipPath id="clip0_8155_331">
<rect width="20" height="20" fill="white"/>
</clipPath>
</defs>
</svg>
