<svg width="18" height="20" viewBox="0 0 18 20" fill="none" xmlns="http://www.w3.org/2000/svg">
<path d="M16.1189 1.4637H13.9198V0H12.456V1.4637H5.13025V0H3.66654V1.4637H1.46734C1.07775 1.4637 0.706362 1.61663 0.429642 1.89335C0.156563 2.16643 0 2.54146 0 2.93105V17.5827C0 17.9722 0.152922 18.3436 0.429642 18.6204C0.702721 18.8934 1.07775 19.05 1.46734 19.05H16.1189C16.5085 19.05 16.8799 18.8971 17.1566 18.6204C17.4334 18.3436 17.5863 17.9722 17.5863 17.5827V2.92741C17.5863 2.53782 17.4334 2.16643 17.1566 1.88971C16.8836 1.61663 16.5085 1.46006 16.1189 1.46006V1.4637ZM4.7625 15.3835C4.54403 15.3835 4.33285 15.3179 4.1508 15.1978C3.96875 15.0776 3.83039 14.9065 3.74664 14.7062C3.6629 14.506 3.64105 14.2839 3.68475 14.0727C3.72844 13.8579 3.83039 13.6649 3.98695 13.5083C4.13988 13.3554 4.3365 13.2498 4.55132 13.2061C4.76614 13.1624 4.9846 13.1843 5.18486 13.268C5.38512 13.3517 5.55625 13.4937 5.6764 13.6722C5.79656 13.8542 5.8621 14.0654 5.8621 14.2839C5.8621 14.5751 5.74558 14.8555 5.54168 15.0594C5.33414 15.2669 5.05742 15.3798 4.76614 15.3798L4.7625 15.3835ZM8.79315 15.3835C8.57468 15.3835 8.3635 15.3179 8.18145 15.1978C7.9994 15.0776 7.86103 14.9065 7.77729 14.7062C7.69355 14.506 7.6717 14.2839 7.71539 14.0727C7.75909 13.8579 7.86104 13.6649 8.0176 13.5083C8.17053 13.3554 8.36714 13.2498 8.58197 13.2061C8.79679 13.1624 9.01525 13.1843 9.21551 13.268C9.41577 13.3517 9.5869 13.4937 9.70705 13.6722C9.82721 13.8542 9.89275 14.0654 9.89275 14.2839C9.89275 14.5751 9.77623 14.8555 9.57233 15.0594C9.36479 15.2669 9.08807 15.3798 8.79679 15.3798L8.79315 15.3835ZM8.79315 11.7206C8.57468 11.7206 8.3635 11.655 8.18145 11.5349C7.9994 11.4147 7.86103 11.2436 7.77729 11.0433C7.69355 10.8431 7.6717 10.621 7.71539 10.4098C7.75909 10.195 7.86104 10.002 8.0176 9.84541C8.17417 9.68885 8.36714 9.5869 8.58197 9.54321C8.79679 9.49951 9.01525 9.52136 9.21551 9.6051C9.41577 9.68885 9.5869 9.83085 9.70705 10.0093C9.82721 10.1913 9.89275 10.4025 9.89275 10.621C9.89275 10.9122 9.77623 11.1926 9.57233 11.3965C9.36479 11.604 9.08807 11.7169 8.79679 11.7169L8.79315 11.7206ZM12.8202 15.3835C12.6017 15.3835 12.3905 15.3179 12.2085 15.1978C12.0264 15.0776 11.888 14.9065 11.8043 14.7062C11.7206 14.506 11.6987 14.2839 11.7424 14.0727C11.7861 13.8579 11.888 13.6649 12.0446 13.5083C12.1975 13.3554 12.3941 13.2498 12.609 13.2061C12.8238 13.1624 13.0423 13.1843 13.2425 13.268C13.4428 13.3517 13.6139 13.4937 13.7341 13.6722C13.8542 13.8542 13.9198 14.0654 13.9198 14.2839C13.9198 14.5751 13.8032 14.8555 13.5993 15.0594C13.3918 15.2669 13.1151 15.3798 12.8238 15.3798L12.8202 15.3835ZM12.8202 11.7206C12.6017 11.7206 12.3905 11.655 12.2085 11.5349C12.0264 11.4147 11.888 11.2436 11.8043 11.0433C11.7206 10.8431 11.6987 10.621 11.7424 10.4098C11.7861 10.195 11.888 10.002 12.0446 9.84541C12.2012 9.68885 12.3941 9.5869 12.609 9.54321C12.8238 9.49951 13.0423 9.52136 13.2425 9.6051C13.4428 9.68885 13.6139 9.83085 13.7341 10.0093C13.8542 10.1913 13.9198 10.4025 13.9198 10.621C13.9198 10.9122 13.8032 11.1926 13.5993 11.3965C13.3918 11.604 13.1151 11.7169 12.8238 11.7169L12.8202 11.7206ZM16.1189 5.85846H1.46734V2.92741H3.66654V4.39111H5.13025V2.92741H12.456V4.39111H13.9198V2.92741H16.1189V5.85846Z" fill="#0A1C1E"/>
</svg>
