<svg width="20" height="20" viewBox="0 0 20 20" fill="none" xmlns="http://www.w3.org/2000/svg">
<g clip-path="url(#clip0_8155_299)">
<path d="M14.3218 7.9187L12.033 5.64459C11.6739 5.28778 11.0917 5.28778 10.7326 5.64459L3.45346 12.8772C3.09436 13.234 3.09436 13.8125 3.45346 14.1693L5.74221 16.4434C6.10132 16.8002 6.68354 16.8002 7.04264 16.4434L14.3218 9.21081C14.6809 8.85401 14.6809 8.27551 14.3218 7.9187Z" fill="#5EE6FD"/>
<path d="M19.2555 0.739166C20.2471 1.7244 20.2471 3.32015 19.2555 4.30539L16.814 6.73132C16.4564 7.08665 15.8712 7.08665 15.5135 6.73132L13.2248 4.45721C12.8672 4.10188 12.8672 3.52043 13.2248 3.1651L15.6663 0.739165C16.6579 -0.246068 18.264 -0.246068 19.2555 0.739166Z" fill="#5EE6FD"/>
<path d="M4.22693 17.3231L2.60854 15.715C2.13498 15.2445 1.33498 15.4181 1.09589 16.0394L0.0614119 18.7621C-0.223646 19.5159 0.534975 20.2422 1.2798 19.927L3.93268 18.8078C4.53498 18.5565 4.6867 17.7799 4.22233 17.3185L4.22693 17.3231Z" fill="#5EE6FD"/>
</g>
<defs>
<clipPath id="clip0_8155_299">
<rect width="20" height="20" fill="white"/>
</clipPath>
</defs>
</svg>
