<svg width="104" height="104" viewBox="0 0 104 104" fill="none" xmlns="http://www.w3.org/2000/svg">
<rect width="104" height="104" rx="30" fill="#0A1C1E"/>
<path d="M59.4957 76.0732L51.0612 63.4291L59.7364 46.4597H59.7196C55.515 46.4597 51.705 48.8079 49.7735 52.5864L41.0982 69.5614H36.4373L28 56.9172L38.1197 37.1154C41.0171 31.4476 46.7334 27.9269 53.0403 27.9269H57.1134C61.0549 27.9269 64.6297 29.9606 66.6789 33.3652C68.2017 35.8975 68.672 38.8432 68.0674 41.6417C70.2313 42.5396 72.0872 44.1229 73.3554 46.2331C75.4045 49.6378 75.5473 53.7873 73.7361 57.3279L64.1566 76.0732H59.4957ZM57.5613 63.0467L61.4972 68.9467L68.7644 54.7277C69.6686 52.9574 69.5986 50.8841 68.574 49.1817C67.9218 48.0969 66.9616 47.2925 65.8419 46.8506L57.5613 63.0495V63.0467ZM34.5001 56.5348L38.436 62.4349L44.799 49.9833C47.6964 44.3156 53.4127 40.7948 59.7196 40.7948H62.5078C62.9305 39.2936 62.7234 37.6819 61.9003 36.311C60.8758 34.6087 59.087 33.5918 57.119 33.5918H53.0459C48.8413 33.5918 45.0314 35.9399 43.0998 39.7185L34.5057 56.5348H34.5001Z" fill="#5EE6FD"/>
</svg>
